<svg width="268" height="59" viewBox="0 0 268 59" fill="none" xmlns="http://www.w3.org/2000/svg">
<rect width="268" height="59" fill="#1E1E1E"/>
<path d="M60.0432 14.1294C60.0264 13.9943 60.0348 13.8569 60.0677 13.7256C60.1007 13.5944 60.1575 13.4722 60.2347 13.3668C60.3118 13.2613 60.4077 13.175 60.5161 13.113C60.6245 13.0511 60.7432 13.0151 60.8647 13.0071H80.9918C81.1273 12.989 81.2646 13.0056 81.3935 13.0557C81.5224 13.1057 81.6395 13.1878 81.7359 13.2958C81.8324 13.4039 81.9057 13.535 81.9503 13.6794C81.995 13.8238 82.0098 13.9776 81.9937 14.1294V20.0214C81.9937 20.319 81.8881 20.6045 81.7003 20.8149C81.5124 21.0254 81.2575 21.1437 80.9918 21.1437H68.1782V32.6696H77.6156C77.7417 32.6522 77.8697 32.6667 77.9901 32.712C78.1105 32.7573 78.2204 32.8321 78.3117 32.9311C78.4029 33.0301 78.4732 33.1507 78.5175 33.2841C78.5617 33.4175 78.5788 33.5603 78.5674 33.7021V39.3135C78.5686 39.5927 78.4769 39.8624 78.3102 40.0699C78.1435 40.2774 77.9137 40.4079 77.6657 40.4358H68.1782V46.9899C68.1782 47.6745 67.8576 48 67.1764 48H60.7646C60.6561 47.993 60.55 47.9616 60.4526 47.9078C60.3551 47.8539 60.2683 47.7787 60.1973 47.6866C60.1263 47.5945 60.0726 47.4874 60.0392 47.3716C60.0058 47.2558 59.9936 47.1336 60.0032 47.0124L60.0432 14.1294Z" fill="white"/>
<path d="M86.0056 14.0349C85.9983 13.8961 86.0171 13.7572 86.0607 13.6275C86.1044 13.4977 86.1719 13.38 86.2588 13.2822C86.3457 13.1845 86.45 13.109 86.5646 13.0607C86.6792 13.0125 86.8015 12.9926 86.9235 13.0024H93.013C93.2617 13.0015 93.5015 13.1074 93.6844 13.2988C93.8674 13.4902 93.9801 13.7531 94 14.0349V46.96C94 47.6333 93.6644 47.9924 93.013 47.9924H86.9235C86.8 48.0104 86.6746 47.9962 86.5567 47.9509C86.4388 47.9056 86.3315 47.8303 86.2431 47.7307C86.1546 47.6312 86.0872 47.5101 86.0461 47.3765C86.0049 47.243 85.9911 47.1005 86.0056 46.96V14.0349Z" fill="white"/>
<path d="M122.894 35.805L110.139 24.5829V46.9597C110.139 47.633 109.789 47.9921 109.137 47.9921H102.925C102.803 48.0077 102.678 47.9925 102.562 47.9476C102.445 47.9026 102.338 47.8292 102.25 47.7324C102.162 47.6357 102.094 47.5182 102.051 47.3884C102.009 47.2587 101.992 47.1199 102.003 46.9821V14.0341C101.996 13.8964 102.015 13.7585 102.059 13.6296C102.102 13.5006 102.17 13.3835 102.257 13.286C102.344 13.1884 102.449 13.1126 102.564 13.0636C102.679 13.0147 102.802 12.9935 102.925 13.0017H109.177C109.814 13.0903 110.423 13.3397 110.961 13.7311L122.894 24.4033V14.0341C122.887 13.8964 122.906 13.7585 122.949 13.6296C122.993 13.5006 123.061 13.3835 123.148 13.286C123.235 13.1884 123.34 13.1126 123.455 13.0636C123.57 13.0147 123.693 12.9935 123.816 13.0017H129.998C130.247 13.0151 130.483 13.1258 130.666 13.3145C130.849 13.5032 130.967 13.7579 131 14.0341V46.9597C131 47.633 130.649 47.9921 129.998 47.9921H123.816C123.691 48.0106 123.564 47.9965 123.445 47.9512C123.325 47.9058 123.217 47.8303 123.128 47.7305C123.039 47.6307 122.971 47.5092 122.931 47.3756C122.89 47.2419 122.878 47.0996 122.894 46.9597V35.805Z" fill="white"/>
<path d="M135.013 14.0363C135.011 13.8924 135.036 13.7498 135.087 13.6176C135.139 13.4854 135.215 13.3667 135.311 13.2694C135.407 13.172 135.52 13.0981 135.644 13.0525C135.767 13.007 135.898 12.9908 136.028 13.005H158.982C159.238 13.0041 159.485 13.1098 159.673 13.301C159.861 13.4922 159.977 13.7548 159.998 14.0363V19.8986C160.007 20.0523 159.988 20.2065 159.942 20.3517C159.895 20.4969 159.822 20.6299 159.726 20.7425C159.631 20.855 159.516 20.9447 159.388 21.0059C159.26 21.067 159.122 21.0984 158.982 21.098H151.632V46.8791C151.632 47.1764 151.525 47.4615 151.335 47.6717C151.144 47.8819 150.886 48 150.617 48H144.353C144.084 48 143.825 47.8819 143.635 47.6717C143.445 47.4615 143.338 47.1764 143.338 46.8791V21.098H136.018C135.878 21.0984 135.74 21.067 135.612 21.0059C135.484 20.9447 135.369 20.855 135.274 20.7425C135.178 20.6299 135.105 20.4969 135.058 20.3517C135.012 20.2065 134.993 20.0523 135.002 19.8986L135.013 14.0363Z" fill="white"/>
<path d="M164.008 14.1228C163.991 13.9789 164.001 13.8324 164.04 13.6937C164.078 13.555 164.143 13.4276 164.23 13.3207C164.317 13.2137 164.424 13.1299 164.543 13.0752C164.662 13.0205 164.791 12.9963 164.919 13.0043H185.564C185.698 12.9905 185.832 13.01 185.957 13.0614C186.083 13.1127 186.197 13.1947 186.292 13.3014C186.386 13.4081 186.459 13.5371 186.504 13.679C186.55 13.821 186.567 13.9725 186.555 14.1228V19.9952C186.555 20.2919 186.45 20.5764 186.265 20.7861C186.079 20.9959 185.827 21.1138 185.564 21.1138H172.098V28.8206H182.485C183.01 28.8206 183.406 29.0778 183.406 29.7378V34.8048C183.403 34.9331 183.378 35.0595 183.332 35.1766C183.285 35.2937 183.219 35.3992 183.136 35.4867C183.053 35.5743 182.955 35.6422 182.848 35.6864C182.742 35.7307 182.628 35.7504 182.515 35.7444H172.078V39.8383H186.05C186.182 39.8146 186.317 39.8278 186.444 39.8768C186.571 39.9258 186.685 40.0091 186.777 40.1194C186.869 40.2297 186.935 40.3636 186.971 40.5096C187.006 40.6555 187.009 40.8091 186.98 40.9568V46.874C186.98 47.1706 186.876 47.4551 186.69 47.6649C186.505 47.8747 186.253 47.9925 185.99 47.9925H164.919C164.798 48.0102 164.674 47.9965 164.558 47.9525C164.442 47.9085 164.336 47.8353 164.248 47.7384C164.16 47.6416 164.093 47.5235 164.052 47.3932C164.01 47.2628 163.995 47.1236 164.008 46.9858V14.1228Z" fill="white"/>
<path d="M216.763 16.7351L213.183 22.4947C212.859 23.0015 212.526 23.2204 212.03 22.7596C210.616 21.516 208.871 20.8614 207.085 20.905C202.433 20.905 199.106 25.1786 199.106 30.4774C199.106 35.7762 202.433 40.0037 207.085 40.0037C208.883 40.0095 210.634 39.3462 212.071 38.1145C212.153 38.0271 212.253 37.9624 212.361 37.9254C212.469 37.8884 212.583 37.8802 212.694 37.9014C212.806 37.9225 212.911 37.9724 213.003 38.0473C213.095 38.1222 213.17 38.2201 213.223 38.3334L216.854 44.2888C217.188 44.8417 216.915 45.4407 216.389 45.7862C214.286 47.4187 211.877 48.4657 209.354 48.8427C206.831 49.2198 204.266 48.9165 201.865 47.9571C199.464 46.9978 197.295 45.4093 195.532 43.3198C193.768 41.2302 192.461 38.698 191.715 35.9273C190.968 33.1566 190.804 30.2248 191.234 27.3684C191.665 24.512 192.679 21.8109 194.194 19.4827C195.71 17.1545 197.684 15.2645 199.958 13.9649C202.233 12.6653 204.743 11.9925 207.287 12.0008C210.532 11.9665 213.708 13.0638 216.389 15.1455C216.743 15.5717 217.167 16.1361 216.763 16.7351Z" fill="white"/>
<path d="M221.001 14.0334C221 13.8993 221.022 13.7662 221.067 13.6417C221.112 13.5173 221.179 13.4039 221.264 13.308C221.348 13.2121 221.449 13.1357 221.56 13.083C221.671 13.0303 221.791 13.0025 221.912 13.001H228.229C228.484 13.0001 228.73 13.1059 228.917 13.2973C229.105 13.4887 229.221 13.7516 229.241 14.0334V31.0008H239.799V14.0334C239.798 13.8945 239.822 13.7567 239.87 13.6285C239.918 13.5002 239.989 13.3842 240.079 13.2876C240.169 13.191 240.276 13.1157 240.393 13.0664C240.511 13.0171 240.636 12.9949 240.761 13.001H246.986C247.553 13.001 247.999 13.304 247.999 13.9885V46.9582C248.006 47.1037 247.984 47.2492 247.934 47.3843C247.885 47.5193 247.809 47.6405 247.712 47.7392C247.616 47.8379 247.5 47.9116 247.375 47.9551C247.249 47.9986 247.117 48.0107 246.986 47.9906H240.7C240.573 48.0058 240.445 47.9898 240.324 47.9438C240.203 47.8978 240.093 47.8229 240.001 47.7244C239.909 47.6258 239.838 47.5061 239.793 47.3737C239.747 47.2413 239.729 47.0994 239.738 46.9582V39.3722H229.231V46.9582C229.231 47.609 228.826 47.9906 228.168 47.9906H221.912C221.795 48.0089 221.677 47.9985 221.564 47.96C221.452 47.9216 221.348 47.856 221.261 47.7681C221.174 47.6802 221.106 47.5721 221.061 47.4515C221.016 47.3309 220.995 47.2007 221.001 47.0704V14.0334Z" fill="white"/>
<path d="M15 30.41C15 30.66 15 30.9 15 31.14H15.0707C19.2846 30.14 23.0438 31.24 26.0652 32.09C28.8745 32.88 30.653 33.33 31.7949 32.53C33.8159 31.14 35.069 25.69 35.6248 16.34C35.7234 14.9316 35.72 13.518 35.6147 12.11C34.9434 12.0378 34.2688 12.0011 33.5936 12C28.6614 12.0027 23.932 13.9434 20.4453 17.3957C16.9586 20.848 15 25.5291 15 30.41H15Z" fill="#009FE3"/>
<path d="M39.7073 13C39.768 14.1859 39.768 15.374 39.7073 16.5599C39.0202 28.0891 37.4134 33.7223 34.2 36.0281C31.4311 38.0003 28.1368 37.0395 25.0244 36.1798C22.1545 35.3708 19.2139 34.5314 16.0106 35.2494L15.6165 35.3505C16.4402 38.4529 18.0518 41.2893 20.2947 43.584C22.5376 45.8787 25.3355 47.5537 28.4165 48.4462C31.4975 49.3388 34.7568 49.4185 37.8777 48.6776C40.9985 47.9368 43.8748 46.4006 46.2271 44.2183C48.5793 42.036 50.3274 39.2818 51.3016 36.2234C52.2758 33.165 52.443 29.9064 51.7867 26.7643C51.1305 23.6221 49.6733 20.7033 47.5567 18.2914C45.4401 15.8796 42.736 14.0567 39.7073 13V13Z" fill="#009FE3"/>
</svg>
