<svg xmlns="http://www.w3.org/2000/svg" viewBox="0 0 36.82 36.82"><defs><style>.cls-1{fill:#009fe3;}</style></defs><title>Recurso 1</title><g id="Capa_2" data-name="Capa 2"><g id="Capa_1-2" data-name="Capa 1"><path class="cls-1" d="M0,18.41c0,.25,0,.49,0,.73l.07,0c4.17-1,7.89.1,10.88.95,2.78.79,4.54,1.24,5.67.44,2-1.39,3.24-6.84,3.79-16.19A29.6,29.6,0,0,0,20.4.11a18.81,18.81,0,0,0-2-.11A18.41,18.41,0,0,0,0,18.41Z"/><path class="cls-1" d="M24.45,1a34.44,34.44,0,0,1,0,3.52C23.77,15.92,22.18,21.49,19,23.77c-2.74,1.95-6,1-9.08.15C7.08,23.12,4.17,22.29,1,23l-.39.1A18.4,18.4,0,1,0,24.45,1Z"/></g></g></svg>