<?xml version="1.0" encoding="utf-8"?>
<!-- Generator: Adobe Illustrator 24.0.1, SVG Export Plug-In . SVG Version: 6.00 Build 0)  -->
<svg version="1.1" id="Capa_1" xmlns="http://www.w3.org/2000/svg" xmlns:xlink="http://www.w3.org/1999/xlink" x="0px" y="0px"
	 viewBox="0 0 511.92 97.91" style="enable-background:new 0 0 511.92 97.91;" xml:space="preserve" fill="#ffffff">
<g id="iLyL7I.tif">
	<g>
		<path d="M57.24,97.91c-10.4-3.56-20.81-7.11-31.2-10.7c-5.22-1.8-10.06-1.23-14.53,2.07c-2.4,1.77-4.76,3.6-7.26,5.23
			c-0.78,0.51-2.15,0.88-2.86,0.53c-0.71-0.35-1.31-1.68-1.32-2.58C-0.02,83.39,0.05,74.33,0,65.26c-0.01-1.96,0.7-3.1,2.57-3.8
			c3.36-1.26,6.63-2.79,9.99-4.06c1.18-0.45,1.44-1.08,1.44-2.24c-0.04-12.61-0.02-25.23-0.02-37.84c0-2.63,0.64-3.27,3.28-3.28
			c5.58-0.01,11.15-0.01,16.73,0c2.61,0,3.29,0.7,3.29,3.3c0,11.94,0,23.88,0,35.82c0,0.62,0,1.23,0,1.9
			c5.89,2.58,11.74,5.14,17.58,7.71c3.96,1.74,7.92,3.48,11.86,5.26c2.66,1.2,3.71,3.47,2.79,5.86c-0.9,2.36-3.25,3.43-5.98,2.63
			c-8.4-2.46-16.8-4.96-25.2-7.43c-0.59-0.17-1.2-0.39-1.8-0.38c-1.23,0.03-2.01,0.77-2.15,1.98c-0.14,1.21,0.5,2.08,1.64,2.44
			c2.3,0.74,4.61,1.41,6.93,2.09c6.25,1.84,12.54,3.53,18.73,5.53c5.23,1.68,9.16-0.51,11.1-3.31c2.41-3.48,2.14-7.42-0.82-11.39
			c0.04-0.08,0.05-0.23,0.12-0.26c2.21-0.86,2.43-2.56,2.41-4.7c-0.11-11.49-0.05-22.98-0.05-34.47c0-2.67,0.7-3.35,3.42-3.35
			c5.52,0,11.04-0.01,16.56,0c2.53,0,3.33,0.8,3.33,3.32c0.01,7.55,0,15.09,0,22.64c0,0.61,0,1.21,0,1.94
			c2.71,0.05,4.99,0.82,6.81,2.69c3.73,3.85,3.16,9.89-1.3,13.31c-5.05,3.87-10.14,7.68-15.21,11.52c-6.6,5-13.23,9.94-19.76,15.02
			c-2.72,2.12-5.67,3.56-9.04,4.19C58.59,97.91,57.92,97.91,57.24,97.91z M32.47,53.42c0-11.27,0-22.89,0-34.54
			c-4.62,0-9.14,0-13.71,0c0,12.03,0,23.94,0,35.47C23.32,54.05,27.82,53.74,32.47,53.42z M79.26,61.3
			c4.58-2.83,8.89-5.45,13.15-8.17c0.41-0.26,0.62-1.12,0.63-1.7c0.04-7.31,0.03-14.63,0.02-21.94c0-0.48-0.07-0.96-0.1-1.42
			c-4.64,0-9.13,0-13.69,0C79.26,39.1,79.26,50.04,79.26,61.3z"/>
		<path d="M67.39,63.27c-0.95-0.42-1.76-0.78-2.56-1.13c-6.38-2.8-12.74-5.63-19.14-8.37c-1.14-0.49-1.6-1.04-1.59-2.33
			c0.05-15.99,0.03-31.98,0.03-47.97c0-2.66,0.78-3.46,3.4-3.46C53.11,0,58.68,0,64.26,0.01c2.45,0.01,3.24,0.78,3.24,3.24
			c0.01,19.48,0.01,38.96,0,58.44C67.5,62.12,67.44,62.56,67.39,63.27z"/>
	</g>
	<g>
		<path d="M183.37,31.17h-26.79v10.37h26.22v22.12h-26.22v25.19h-22.8V9.05h49.59V31.17z"/>
		<path d="M201.95,27.52c-3.19,0-5.95-1.16-8.27-3.48c-2.32-2.32-3.48-5.03-3.48-8.15c0-3.12,1.16-5.83,3.48-8.15
			c2.32-2.32,5.07-3.48,8.27-3.48c3.12,0,5.83,1.16,8.15,3.48c2.32,2.32,3.48,5.04,3.48,8.15c0,3.12-1.16,5.83-3.48,8.15
			C207.79,26.36,205.07,27.52,201.95,27.52z M191.35,88.85v-57h21.09v57H191.35z"/>
		<path d="M257.93,30.26c6.23,0,11.23,2.15,14.99,6.44c3.76,4.29,5.64,10.7,5.64,19.21v32.95h-21.09V58.19
			c0-5.09-2.36-7.64-7.07-7.64c-2.51,0-4.43,0.8-5.76,2.39c-1.33,1.6-1.99,3.8-1.99,6.61v29.3h-21.09v-57h21.09v5.59
			C246.15,32.65,251.24,30.26,257.93,30.26z"/>
		<path d="M324.73,51.92h-11.97v12.31c0,1.9,0.46,3.31,1.37,4.22c0.91,0.91,2.26,1.42,4.05,1.54c1.79,0.11,3.97,0.1,6.55-0.06v18.92
			c-11.93,1.67-20.42,0.65-25.48-3.08c-5.06-3.72-7.58-10.53-7.58-20.41V51.92h-7.98V31.85h7.98v-9.69l21.09-6.27v15.96h11.97V51.92
			z"/>
		<path d="M350.38,67.53c1.82,3.8,5.7,5.7,11.63,5.7c3.5,0,6.73-1.21,9.69-3.65l13.79,11.63c-5.7,6.16-13.76,9.23-24.17,9.23
			c-9.73,0-17.54-2.83-23.43-8.49c-5.89-5.66-8.83-12.79-8.83-21.38c0-8.66,2.87-15.88,8.61-21.66c5.74-5.77,12.98-8.66,21.72-8.66
			c8.66,0,15.79,2.83,21.38,8.49c5.59,5.66,8.38,12.79,8.38,21.38c0,2.51-0.3,4.98-0.91,7.41H350.38z M350.04,53.97h19.15
			c-1.29-4.56-4.37-6.84-9.23-6.84C355.02,47.13,351.71,49.41,350.04,53.97z"/>
		<path d="M423.57,90.45c-8.74,0-16-2.87-21.77-8.61c-5.78-5.74-8.66-12.9-8.66-21.49c0-8.59,2.89-15.75,8.66-21.49
			c5.78-5.74,13.03-8.61,21.77-8.61c5.62,0,10.77,1.35,15.45,4.05c4.67,2.7,8.27,6.33,10.77,10.89l-17.78,10.15
			c-1.9-3.19-4.71-4.79-8.44-4.79c-2.66,0-4.88,0.93-6.67,2.79c-1.79,1.86-2.68,4.2-2.68,7.01c0,2.81,0.89,5.15,2.68,7.01
			c1.78,1.86,4.01,2.79,6.67,2.79c3.95,0,6.76-1.63,8.44-4.9l17.78,10.26c-2.51,4.64-6.1,8.28-10.77,10.94
			C434.34,89.12,429.19,90.45,423.57,90.45z"/>
		<path d="M491.29,30.26c6.23,0,11.23,2.15,14.99,6.44c3.76,4.29,5.64,10.7,5.64,19.21v32.95h-21.09V58.19
			c0-5.09-2.36-7.64-7.07-7.64c-2.51,0-4.43,0.8-5.76,2.39c-1.33,1.6-1.99,3.8-1.99,6.61v29.3h-21.09V9.05h21.09v28.39
			C479.5,32.65,484.6,30.26,491.29,30.26z"/>
	</g>
</g>
</svg>
